<svg viewBox="0 0 16 16" xmlns="http://www.w3.org/2000/svg" xmlns:xlink="http://www.w3.org/1999/xlink" width="16.000000" height="16.000000" fill="none">
	<rect id="shopping-cart-01" width="16.000000" height="16.000000" x="0.000000" y="0.000000" fill="rgb(255,255,255)" fill-opacity="0" />
	<path id="Icon (Stroke)" d="M4.66675 14C4.66675 13.2636 5.2637 12.6666 6.00008 12.6666C6.73646 12.6666 7.33342 13.2636 7.33342 14C7.33342 14.7363 6.73646 15.3333 6.00008 15.3333C5.2637 15.3333 4.66675 14.7363 4.66675 14ZM10.0001 14C10.0001 13.2636 10.597 12.6666 11.3334 12.6666C12.0698 12.6666 12.6667 13.2636 12.6667 14C12.6667 14.7363 12.0698 15.3333 11.3334 15.3333C10.597 15.3333 10.0001 14.7363 10.0001 14ZM2.20451 0.666629C2.2763 0.666627 2.36755 0.66633 2.448 0.672488C2.53683 0.679298 2.66052 0.696596 2.79305 0.757123C2.94576 0.826913 3.07836 0.933825 3.17847 1.06767L3.21948 1.12626L3.27026 1.21741C3.31423 1.30715 3.3378 1.39101 3.35229 1.45634C3.36979 1.53523 3.38185 1.62611 3.39201 1.69723L3.62573 3.3333L14.0222 3.3333C14.1208 3.3333 14.2379 3.33298 14.3386 3.34176C14.4319 3.34989 14.5665 3.3688 14.7071 3.43681L14.7677 3.46936L14.8419 3.51754C15.0099 3.63655 15.1381 3.80513 15.2071 4.00061C15.2694 4.17718 15.2628 4.33886 15.252 4.44527C15.2418 4.54584 15.2197 4.66093 15.2013 4.75777L14.3184 9.39059C14.2615 9.68942 14.2123 9.94932 14.155 10.1621C14.0956 10.3829 14.0169 10.5984 13.8777 10.8007C13.6673 11.1064 13.3755 11.3478 13.0359 11.4974C12.8112 11.5963 12.5849 11.6333 12.3569 11.6504C12.1371 11.6668 11.8721 11.6666 11.5678 11.6666L5.86271 11.6666C5.54291 11.6666 5.26544 11.6673 5.03589 11.6497C4.79805 11.6314 4.56213 11.5906 4.32951 11.4837C3.97924 11.3228 3.68267 11.0643 3.47599 10.7389C3.33877 10.5228 3.26704 10.2943 3.21688 10.0612C3.16846 9.83606 3.13174 9.56102 3.08862 9.2441L2.3868 4.08981L2.3868 4.08915L2.08862 1.99996L1.33341 1.99996C0.965225 1.99996 0.666748 1.70149 0.666748 1.3333C0.666748 0.965105 0.965225 0.666629 1.33341 0.666629L2.20451 0.666629ZM4.40959 9.06441C4.45544 9.40146 4.48511 9.6171 4.52026 9.78056C4.55368 9.93589 4.58256 9.99401 4.60164 10.024C4.67054 10.1325 4.7694 10.2185 4.88615 10.2721C4.91849 10.287 4.97973 10.3081 5.1381 10.3203C5.30481 10.3331 5.52251 10.3333 5.86271 10.3333L11.5678 10.3333C11.8917 10.3333 12.0986 10.3328 12.2572 10.3209C12.4075 10.3097 12.4669 10.2907 12.4988 10.2767C12.6119 10.2268 12.7093 10.1467 12.7794 10.0449C12.7991 10.0162 12.8288 9.96121 12.8679 9.81572C12.9092 9.66217 12.948 9.45929 13.0085 9.14124L13.8614 4.66663L3.81128 4.66663L4.40959 9.06441Z" fill="rgb(16,23,39)" fill-rule="nonzero" />
</svg>
