<svg viewBox="0 0 20 20" xmlns="http://www.w3.org/2000/svg" xmlns:xlink="http://www.w3.org/1999/xlink" width="20.000000" height="20.000000" fill="none" customFrame="#000000">
	<g id="facebook">
		<path id="BG 111" opacity="0.579999983" />
		<path id="Vector" d="M18.3333 13.4915C18.3333 16.5248 16.525 18.3332 13.4916 18.3332L12.5 18.3332C12.0416 18.3332 11.6666 17.9582 11.6666 17.4998L11.6666 12.6915C11.6666 12.4665 11.85 12.2748 12.075 12.2748L13.5416 12.2498C13.6583 12.2415 13.7583 12.1582 13.7833 12.0415L14.075 10.4498C14.1 10.2998 13.9833 10.1582 13.825 10.1582L12.05 10.1832C11.8166 10.1832 11.6333 9.99985 11.625 9.77485L11.5916 7.73317C11.5916 7.59984 11.7 7.48318 11.8416 7.48318L13.8416 7.44984C13.9833 7.44984 14.0916 7.34152 14.0916 7.19985L14.0583 5.19983C14.0583 5.05816 13.95 4.94984 13.8083 4.94984L11.5583 4.98318C10.175 5.00818 9.07497 6.1415 9.09997 7.52484L9.14163 9.8165C9.14996 10.0498 8.96663 10.2332 8.7333 10.2415L7.73329 10.2582C7.59162 10.2582 7.4833 10.3665 7.4833 10.5082L7.5083 12.0915C7.5083 12.2332 7.61662 12.3415 7.75829 12.3415L8.7583 12.3248C8.99163 12.3248 9.17495 12.5082 9.18328 12.7332L9.25828 17.4832C9.26661 17.9498 8.89161 18.3332 8.42495 18.3332L6.50829 18.3332C3.47496 18.3332 1.66663 16.5248 1.66663 13.4832L1.66663 6.50817C1.66663 3.47483 3.47496 1.6665 6.50829 1.6665L13.4916 1.6665C16.525 1.6665 18.3333 3.47483 18.3333 6.50817L18.3333 13.4915Z" fill="rgb(16,23,39)" fill-rule="nonzero" />
		<path id="Vector" opacity="0" />
	</g>
</svg>
